<?xml version="1.0" encoding="utf-8"?>
<svg version="1.1" xmlns:xlink="http://www.w3.org/1999/xlink" width="89px" height="50px" xmlns="http://www.w3.org/2000/svg">
  <g transform="matrix(1 0 0 1 -958 -153 )">
    <path d="M 958 153  L 1047 153  L 1047 203  L 958 203  L 958 153  " fill-rule="nonzero" fill="#cccccc" stroke="none" />
    <path d="M 962 157  L 1043 157  L 1043 199  L 962 199  L 962 157  " fill-rule="nonzero" fill="#ffffff" stroke="none" />
    <path d="M 1008.03 168  C 1005.93 168  1004.28 166.35  1004.28 164.25  C 1004.28 162.15  1005.93 160.5  1008.03 160.5  C 1010.13 160.5  1011.78 162.15  1011.78 164.25  C 1011.78 166.35  1010.13 168  1008.03 168  " fill-rule="nonzero" fill="#cccccc" stroke="none" />
    <path d="M 964 198  L 964 176.55  L 983.5 166.8  L 1010.8 184.85393258427  L 1026.4 172.65  L 1042 184.85393258427  L 1042 198  L 964 198  " fill-rule="nonzero" fill="#169bd5" stroke="none" />
  </g>
</svg>