<?xml version="1.0" encoding="utf-8"?>
<svg version="1.1" xmlns:xlink="http://www.w3.org/1999/xlink" width="326px" height="185px" xmlns="http://www.w3.org/2000/svg">
  <g transform="matrix(1 0 0 1 -242 -81 )">
    <path d="M 242 81  L 568 81  L 568 266  L 242 266  L 242 81  " fill-rule="nonzero" fill="#cccccc" stroke="none" />
    <path d="M 255 94  L 555 94  L 555 253  L 255 253  L 255 94  " fill-rule="nonzero" fill="#ffffff" stroke="none" />
    <path d="M 425.395 136.5  C 417.625 136.5  411.52 130.395  411.52 122.625  C 411.52 114.855  417.625 108.75  425.395 108.75  C 433.165 108.75  439.27 114.855  439.27 122.625  C 439.27 130.395  433.165 136.5  425.395 136.5  " fill-rule="nonzero" fill="#cccccc" stroke="none" />
    <path d="M 260 249  L 260 166.5  L 332.75 129  L 434.6 197.926380368098  L 492.8 151.5  L 551 197.926380368098  L 551 249  L 260 249  " fill-rule="nonzero" fill="#169bd5" stroke="none" />
  </g>
</svg>